<?xml version="1.0" encoding="utf-8"?>
<!-- Generator: Adobe Illustrator 21.0.0, SVG Export Plug-In . SVG Version: 6.00 Build 0)  -->
<svg version="1.1" id="圖層_1" xmlns="http://www.w3.org/2000/svg" xmlns:xlink="http://www.w3.org/1999/xlink" x="0px" y="0px"
	 viewBox="0 0 30 37" style="enable-background:new 0 0 30 37;" xml:space="preserve">
<path d="M15.6,17.5H0.9c-0.5,0-0.9,0.4-0.9,1s0.4,1,0.9,1h14.6c0.4,1.9,2.1,3.3,4.1,3.3s3.7-1.4,4.1-3.3H29c0.5,0,0.9-0.4,0.9-1
	s-0.4-1-0.9-1h-5.3c-0.4-1.9-2.1-3.3-4.1-3.3C17.7,14.2,16,15.6,15.6,17.5z M19.7,16.1c1.3,0,2.3,1.1,2.3,2.4s-1.1,2.4-2.3,2.4
	c-1.3,0-2.4-1.1-2.4-2.4S18.4,16.1,19.7,16.1z M6.2,31.8H0.9c-0.5,0-0.9,0.4-0.9,0.9s0.4,1,0.9,1h5.3c0.4,1.9,2.1,3.3,4.1,3.3
	s3.7-1.4,4.1-3.3H29c0.5,0,0.9-0.4,0.9-1s-0.4-0.9-0.9-0.9H14.4c-0.4-1.9-2.1-3.3-4.1-3.3C8.3,28.5,6.6,29.9,6.2,31.8z M10.3,30.4
	c1.3,0,2.3,1.1,2.3,2.4s-1.1,2.4-2.3,2.4C9,35.1,8,34,8,32.7C8,31.4,9,30.4,10.3,30.4z M6.2,3.3H0.9C0.4,3.3,0,3.8,0,4.3
	s0.4,0.9,0.9,0.9h5.3c0.4,1.9,2.1,3.3,4.1,3.3s3.7-1.4,4.1-3.3H29c0.5,0,0.9-0.4,0.9-0.9s-0.4-1-0.9-1H14.4C14,1.4,12.3,0,10.3,0
	S6.6,1.4,6.2,3.3z M10.3,1.9c1.3,0,2.3,1.1,2.3,2.4s-1.1,2.4-2.3,2.4C9,6.6,8,5.6,8,4.3S9,1.9,10.3,1.9z"/>
</svg>
