<?xml version="1.0" encoding="utf-8"?>
<!-- Generator: Adobe Illustrator 21.0.0, SVG Export Plug-In . SVG Version: 6.00 Build 0)  -->
<svg version="1.1" id="圖層_1" xmlns="http://www.w3.org/2000/svg" xmlns:xlink="http://www.w3.org/1999/xlink" x="0px" y="0px"
	 viewBox="0 0 24 9" style="enable-background:new 0 0 24 9;" xml:space="preserve">
<path d="M20.5,8.6c-0.1,0.1-0.3,0.2-0.4,0.3C20,9,19.9,9,19.8,9c-0.1,0-0.2,0-0.4-0.1c-0.1-0.1-0.2-0.1-0.3-0.2s-0.2-0.2-0.2-0.3
	c-0.1-0.1-0.1-0.2-0.1-0.4c0-0.2,0-0.3,0.1-0.4c0.1-0.1,0.2-0.3,0.3-0.4l1.6-1.7H1.1c-0.4,0-0.6-0.1-0.8-0.3C0.1,5.1,0,4.8,0,4.5
	s0.1-0.6,0.3-0.8c0.2-0.2,0.5-0.3,0.8-0.3h19.6l-1.6-1.7c-0.1-0.1-0.2-0.3-0.3-0.4c-0.1-0.1-0.1-0.3-0.1-0.4c0-0.1,0-0.3,0.1-0.4
	c0.1-0.1,0.1-0.2,0.2-0.3s0.2-0.2,0.3-0.2C19.5,0,19.6,0,19.8,0c0.1,0,0.3,0,0.4,0.1c0.1,0.1,0.3,0.1,0.4,0.3l3,3.3
	c0.1,0.1,0.2,0.3,0.3,0.4C24,4.2,24,4.3,24,4.5s0,0.3-0.1,0.4c-0.1,0.1-0.2,0.3-0.3,0.4L20.5,8.6z"/>
</svg>
