<?xml version="1.0" encoding="utf-8"?>
<!-- Generator: Adobe Illustrator 21.0.0, SVG Export Plug-In . SVG Version: 6.00 Build 0)  -->
<svg version="1.1" id="圖層_1" xmlns="http://www.w3.org/2000/svg" xmlns:xlink="http://www.w3.org/1999/xlink" x="0px" y="0px"
	 viewBox="0 0 79 78.5" style="enable-background:new 0 0 79 78.5;" xml:space="preserve">
<path d="M0,0l79,78.5V0H0z M67.8,23.5c-0.3,0.3-0.8,0.3-1.1,0L55.8,12.7v21.5c0,0.4-0.4,0.8-0.8,0.8s-0.8-0.4-0.8-0.8V12.7
	L43.4,23.5c-0.3,0.3-0.8,0.3-1.1,0c-0.3-0.3-0.3-0.8,0-1.1l12.2-12.2l0,0l0,0l0,0l0,0l0,0l0,0l0,0l0,0l0,0l0,0h0l0,0h0l0,0h0l0,0h0
	l0,0h0v0h0h0l0,0l0,0l0,0h0h0h0v0h0l0.1,0h0l0,0h0h0l0,0h0h0h0h0h0h0h0h0l0,0h0h0l0,0h0l0.1,0h0v0h0h0h0l0,0l0,0h0l0,0h0h0v0h0l0,0
	h0l0,0h0l0,0h0l0,0l0,0l0,0l0,0l0,0l0,0l0,0l0,0l0,0l0,0l0,0l12.2,12.2C68.1,22.7,68.1,23.2,67.8,23.5z"/>
</svg>
