<?xml version="1.0" encoding="utf-8"?>
<!-- Generator: Adobe Illustrator 21.0.0, SVG Export Plug-In . SVG Version: 6.00 Build 0)  -->
<svg version="1.1" id="圖層_1" xmlns="http://www.w3.org/2000/svg" xmlns:xlink="http://www.w3.org/1999/xlink" x="0px" y="0px"
	 viewBox="0 0 213 32" style="enable-background:new 0 0 213 32;" xml:space="preserve">
<style type="text/css">
	.st0{fill-rule:evenodd;clip-rule:evenodd;fill:#9FC91B;}
	.st1{fill-rule:evenodd;clip-rule:evenodd;fill:#FFFFFF;}
	.st2{fill-rule:evenodd;clip-rule:evenodd;fill:#B4B4B5;}
</style>
<polygon class="st0" points="45,1.5 36.2,31.7 213,31.6 212.3,1.5 "/>
<path class="st1" d="M52.2,9.6h13.1l-1,3.6H53.5c-0.2,0-0.4,0.1-0.6,0.3c-0.2,0.2-0.3,0.5-0.4,0.7c-0.1,0.2,0,0.5,0.1,0.7
	c0.1,0.3,0.3,0.4,0.7,0.4h8.8c0.8,0,1.3,0.2,1.5,0.7c0.2,0.5,0.3,1.1,0,1.9l-1.2,4.5c-0.2,0.6-0.5,1.2-0.9,1.7
	c-0.4,0.5-0.9,0.7-1.5,0.7H45.6l1-3.8h11.7c0.2,0,0.4-0.1,0.7-0.3c0.3-0.2,0.5-0.4,0.6-0.8c0.1-0.2,0.1-0.4,0-0.6
	c0-0.2-0.2-0.3-0.3-0.4c-0.2-0.1-0.4-0.2-0.6-0.2h-8.8c-0.4,0-0.8-0.1-1-0.4c-0.3-0.3-0.4-0.6-0.5-0.9c-0.1-0.3-0.1-0.6,0-0.9l1.3-5
	c0.1-0.4,0.4-0.9,1-1.4C51,9.9,51.6,9.6,52.2,9.6z"/>
<path class="st1" d="M148.4,9.6h13.1l-1,3.6h-10.8c-0.2,0-0.4,0.1-0.6,0.3c-0.2,0.2-0.3,0.5-0.4,0.7c-0.1,0.2,0,0.5,0.1,0.7
	c0.1,0.3,0.4,0.4,0.7,0.4h8.8c0.8,0,1.3,0.2,1.5,0.7c0.2,0.5,0.3,1.1,0,1.9l-1.2,4.5c-0.2,0.6-0.5,1.2-0.9,1.7
	c-0.4,0.5-0.9,0.7-1.5,0.7h-14.5l1-3.8h11.7c0.2,0,0.4-0.1,0.7-0.3c0.3-0.2,0.5-0.4,0.6-0.8c0.1-0.2,0.1-0.4,0-0.6
	c-0.1-0.2-0.2-0.3-0.3-0.4c-0.2-0.1-0.4-0.2-0.6-0.2H146c-0.4,0-0.8-0.1-1-0.4c-0.3-0.3-0.4-0.6-0.5-0.9c-0.1-0.3-0.1-0.6,0-0.9
	l1.3-5c0.1-0.4,0.4-0.9,1-1.4C147.2,9.9,147.8,9.6,148.4,9.6z"/>
<path class="st1" d="M162.6,11.6c0-1.2,1.1-2.1,2.4-2.1c1.3,0,2.4,0.9,2.4,2.1c0,1.2-1.1,2.1-2.4,2.1
	C163.7,13.7,162.6,12.8,162.6,11.6z"/>
<path class="st1" d="M135,9.6h4.1l-9.4,13.1c-0.3,0.4-0.7,0.8-1,1.2c-0.4,0.4-0.8,0.7-1.4,1c-0.6,0.3-1.2,0.4-1.9,0.4
	c-0.6,0-1.2-0.1-1.6-0.4c-0.4-0.3-0.7-0.6-0.9-1c-0.2-0.4-0.3-0.7-0.3-1.1l-2.4-13.2h4.1l2,10.3c0.1,0.3,0.1,0.5,0.1,0.6
	c0.1,0.1,0.1,0.1,0.3,0.1c0.2,0,0.3-0.1,0.4-0.2c0.1-0.1,0.3-0.3,0.5-0.6L135,9.6z"/>
<path class="st1" d="M139.3,11.6c0-1.2,1.1-2.1,2.4-2.1c1.3,0,2.4,0.9,2.4,2.1c0,1.2-1.1,2.1-2.4,2.1
	C140.4,13.7,139.3,12.8,139.3,11.6z"/>
<polygon class="st1" points="67.3,9.6 77.4,9.6 77.4,9.6 83.9,9.6 82.9,13.3 76.4,13.3 73.3,24.9 73.3,24.9 73.3,24.9 69.8,24.9 
	72.9,13.3 66.4,13.3 "/>
<path class="st1" d="M78.8,24.8l9.4-13.2c0.2-0.3,0.5-0.7,0.9-1.1c0.4-0.4,0.9-0.7,1.5-1c0.6-0.3,1.2-0.4,1.8-0.4
	c0.7,0,1.2,0.1,1.6,0.4c0.4,0.3,0.7,0.6,0.9,1c0.2,0.4,0.3,0.8,0.4,1.2l2.4,13.1h-4.2l-2-10.3c0-0.3-0.1-0.5-0.2-0.6
	c0-0.1-0.1-0.2-0.3-0.2c-0.2,0-0.3,0-0.4,0.1c-0.1,0.1-0.2,0.3-0.5,0.6l-7.4,10.3H78.8z"/>
<path class="st1" d="M98.6,24.9l2.5-9.5h11.4c0.2,0,0.5-0.1,0.8-0.3c0.3-0.2,0.5-0.5,0.6-0.8c0.1-0.3,0.1-0.5,0-0.6
	c-0.1-0.2-0.2-0.3-0.3-0.3c-0.2-0.1-0.3-0.1-0.5-0.1h-11.2l1-3.6h13.7c0.7,0,1.1,0.3,1.4,0.8c0.3,0.6,0.4,1.2,0.2,2l-1,3.8
	c-0.2,0.7-0.4,1.2-0.8,1.6c-0.3,0.4-0.7,0.6-1,0.8c-0.3,0.1-0.7,0.2-1.2,0.3c-0.4,0.1-0.7,0.1-0.8,0.1l2.8,5.8h-4.7l-2.9-5.8h-4.7
	l-1.6,5.8H98.6z"/>
<polygon class="st1" points="136.5,24.9 139,15.4 142.6,15.4 140.1,24.9 "/>
<polygon class="st1" points="159.8,24.9 162.4,15.4 166,15.4 163.5,24.9 "/>
<path class="st1" d="M166.7,20.1l1.5-5.7c0.2-0.6,0.4-1.2,0.8-1.8c0.4-0.6,0.8-1.1,1.3-1.5c0.5-0.4,1-0.8,1.5-1
	c0.5-0.3,0.9-0.4,1.3-0.4h9.5c0.4,0,0.9,0.2,1.4,0.5c0.5,0.3,0.9,0.9,1.2,1.7c0.3,0.8,0.3,1.8-0.1,3l-1.5,5.5
	c-0.2,0.9-0.6,1.6-1.2,2.3c-0.6,0.7-1.2,1.3-1.9,1.7c-0.7,0.4-1.2,0.6-1.6,0.6h-9.6c-0.8,0-1.4-0.3-1.9-0.8
	c-0.5-0.5-0.8-1.1-0.9-1.9C166.5,21.5,166.5,20.8,166.7,20.1z"/>
<path class="st1" d="M184.4,24.9l3.2-12.2c0.1-0.2,0.2-0.5,0.4-0.9c0.2-0.4,0.5-0.8,0.9-1.1c0.4-0.4,0.8-0.7,1.3-1
	c0.5-0.3,1.1-0.4,1.7-0.4c0.8,0,1.3,0.2,1.7,0.5c0.3,0.3,0.6,0.7,0.8,1l3.8,8.8c0.1,0.3,0.2,0.5,0.3,0.6c0.1,0.1,0.3,0.1,0.4,0.1
	c0.2,0,0.4-0.1,0.5-0.2c0.1-0.1,0.2-0.4,0.3-0.6l2.6-9.8h3.6l-3.2,11.9c-0.1,0.4-0.4,1-0.8,1.6c-0.4,0.6-0.9,1.1-1.5,1.6
	c-0.6,0.5-1.3,0.7-2.1,0.7c-0.8,0-1.4-0.1-1.7-0.4c-0.3-0.3-0.6-0.8-0.8-1.5l-3.7-9c-0.1-0.3-0.2-0.5-0.3-0.6s-0.2-0.1-0.4-0.1
	c-0.1,0-0.2,0.1-0.4,0.2c-0.1,0.1-0.2,0.2-0.3,0.4L188,24.9H184.4z"/>
<path class="st0" d="M171.4,15.6l-0.8,3c-0.2,0.7-0.2,1.3,0,1.8c0.2,0.5,0.6,0.7,1.2,0.7h6.2c0.5,0,1-0.2,1.4-0.5
	c0.4-0.3,0.8-0.9,1-1.7l0.8-3.1c0.2-0.7,0.1-1.2-0.1-1.7c-0.3-0.5-0.8-0.7-1.6-0.7H174c-0.2,0-0.5,0.1-0.9,0.3
	c-0.4,0.2-0.7,0.5-1,0.8C171.7,14.9,171.5,15.2,171.4,15.6z"/>
<path class="st0" d="M19.6,20.9c2.6,0,4.7-2.2,4.7-4.8c0-2.7-2.1-4.8-4.7-4.8c-2.6,0-4.7,2.2-4.7,4.8C14.9,18.7,17,20.9,19.6,20.9z"
	/>
<path class="st2" d="M14.5,21L5.1,9.2l-5,16.6C-0.9,31.3,3.5,32,4.6,32h21.2c2.4,0,4.6-1,6.2-3.4l-2.7-3.4c-0.8,2.2-1.7,2.9-4.2,2.9
	H4.7c-0.5,0-1.2-0.2-0.8-1.4l2.8-9.6l5.5,6.8c4.6,4.8,12,3.2,15-1.4l-2.5-3.1C22.3,23.7,18.1,24.7,14.5,21z"/>
<path class="st2" d="M13.9,3.8h20.3c0.5,0,1.2,0.2,0.8,1.4l-2.8,9.6L26.7,8c-4.6-4.8-12-3.2-15,1.4l2.5,3.1
	c2.4-4.2,6.5-5.2,10.2-1.5l9.4,11.8l5-16.6C39.8,0.7,35.4,0,34.3,0H13.2c-2.4,0-4.6,1-6.2,3.4l2.7,3.4C10.5,4.6,11.4,3.9,13.9,3.8z"
	/>
</svg>
