<svg xmlns="http://www.w3.org/2000/svg" viewBox="0 0 1198.77 586"><defs><style>.cls-1,.cls-3{opacity:0.8;}.cls-2{fill:#9fc91b;}.cls-3{fill:#7fcff4;}.cls-4{fill:#f5ed83;}.cls-4,.cls-5{opacity:0.65;}.cls-5{fill:#f57ed7;}.cls-6{font-size:24px;font-family:Montserrat-SemiBold, Montserrat;font-weight:700;}.cls-7{fill:#99d9f6;}.cls-10,.cls-7,.cls-8,.cls-9{fill-rule:evenodd;}.cls-8{fill:#f798df;}.cls-9{fill:#f7f09c;}.cls-10{fill:#b2d348;}.cls-11{font-size:18px;fill:#333;font-family:Montserrat-Regular, Montserrat;}</style></defs><title>Core Value</title><g id="圖層_2" data-name="圖層 2"><g id="圖層_1-2" data-name="圖層 1"><g class="cls-1"><path class="cls-2" d="M570.36,310.61A155.31,155.31,0,1,0,415.1,155.31,155.28,155.28,0,0,0,570.36,310.61Z"/><path class="cls-3" d="M570.36,586A155.31,155.31,0,1,0,415.1,430.69,155.28,155.28,0,0,0,570.36,586Z"/></g><path class="cls-4" d="M587.89,293A155.27,155.27,0,1,0,432.62,448.31,155.29,155.29,0,0,0,587.89,293Z"/><path class="cls-5" d="M863.36,293A155.27,155.27,0,1,0,708.1,448.31,155.29,155.29,0,0,0,863.36,293Z"/><text class="cls-6" transform="translate(482.9 99.1)">Sustainiability</text><text class="cls-6" transform="translate(336.2 300)">Sharing</text><text class="cls-6" transform="translate(714.64 300)">Service</text><text class="cls-6" transform="translate(517.11 500.98)">Integrity</text><path class="cls-7" d="M440.61,516H70.36v3H442.64Q441.61,517.51,440.61,516Z"/><path class="cls-8" d="M854.43,345q-.54,1.51-1.1,3h289v-3Z"/><path class="cls-9" d="M285.25,244H.36v3H284.29C284.6,246,284.92,245,285.25,244Z"/><path class="cls-10" d="M717.29,105c.34,1,.67,2,1,3h354.08v-3Z"/><text class="cls-11" transform="translate(0 161.25)">More than selling products,<tspan x="0" y="28.8">Starvision shares </tspan><tspan x="0" y="57.6">professional experience.</tspan></text><text class="cls-11" transform="translate(69.62 463.9)">More than selling products,<tspan x="0" y="28.8">Starvision fulfills the promise.</tspan></text><text class="cls-11" transform="translate(748.39 22.05)">More than selling products,<tspan x="0" y="28.8">Starvision persists in sustainable </tspan><tspan x="0" y="57.6">operation.</tspan></text><text class="cls-11" transform="translate(896.78 251.99)">More than selling products,<tspan x="0" y="28.8">Starvision carries through </tspan><tspan x="0" y="57.6">after-sales responsibilities.</tspan></text></g></g></svg>