<?xml version="1.0" encoding="utf-8"?>
<!-- Generator: Adobe Illustrator 21.0.0, SVG Export Plug-In . SVG Version: 6.00 Build 0)  -->
<svg version="1.1" id="圖層_1" xmlns="http://www.w3.org/2000/svg" xmlns:xlink="http://www.w3.org/1999/xlink" x="0px" y="0px"
	 viewBox="0 0 1441 519" style="enable-background:new 0 0 1441 519;" xml:space="preserve">
<style type="text/css">
	.st0{fill:#D3D3D3;}
</style>
<polygon class="st0" points="1438.1,369 1441,369.1 1440.7,370.2 1438.9,371.2 1436,371 1435.3,370.4 "/>
<polygon class="st0" points="1429.1,373.2 1432.9,373.2 1434.5,376.1 1433.2,376.8 1429.9,376.7 1427.8,375.2 "/>
<polygon class="st0" points="1382.1,451.9 1384.8,453.5 1390.4,452.4 1390.4,453.7 1383.2,458.1 1379.5,458.4 1376.7,461.3 
	1373.9,463.6 1364.1,467.1 1368.4,462.6 1367.7,460.9 1365.6,459.7 1367,458.6 1370.1,457.1 1372.5,455.9 1375.9,449.3 
	1375.3,441.6 1376.7,440.1 1381.1,443.1 1380.8,445.4 1378.4,448.4 1378.9,449.2 1381.7,448.7 "/>
<polygon class="st0" points="1356,464.5 1356.3,466 1360.3,464.9 1359.8,467.5 1357.4,469.6 1346.9,475.4 1345.3,476.9 
	1335.4,478.5 1330.4,481.7 1326.2,484.1 1321.2,485.8 1318.3,486.9 1314.1,486 1310.6,486.1 1309.5,485 1312.9,482.9 1320.3,479.5 
	1325.2,477 1333.3,475.3 1340.4,472.5 1347.4,467.8 1350.1,467.5 1354.2,463.9 "/>
<polygon class="st0" points="1303.8,400 1306.8,404.8 1308.9,403.9 1307,405.5 1306.8,408.4 1305.3,411.3 1306.1,413.5 
	1300.4,423.4 1297.8,425 1297.8,426.9 1295.4,429.3 1293.2,430 1292.2,431.6 1279.2,440.2 1278,442.9 1273.9,444.7 1267.5,452.1 
	1258.2,453.2 1251.5,456.9 1248.1,457.1 1245.5,455.1 1245.3,453.8 1237.6,456.6 1225.7,453.8 1225.1,451.9 1225.9,446 
	1225.3,444.7 1222.8,444.3 1225,439.5 1222,442.3 1217.7,443 1221.1,439.4 1224.6,437.2 1225.8,434.2 1220.8,437.1 1213.3,441.3 
	1211.2,439.7 1211.2,435.5 1209.8,433.6 1209.2,432.3 1203.3,430.2 1200.4,428.7 1197.1,428.5 1187.7,429.5 1180.2,431.7 
	1174.1,431.9 1167.2,434.4 1163.5,434.6 1162.4,436.3 1158.7,437.9 1143.5,437.9 1139.2,440.4 1133.4,442.8 1129.8,443.2 
	1126.4,442.1 1125.1,439.5 1122.9,439.5 1123.4,437.4 1127,435.4 1130.4,429.6 1129.1,425.6 1129.2,415.3 1126.6,409.4 
	1126.4,406.5 1127.8,406 1129.7,407.5 1130.8,406.2 1129.3,401.7 1129.9,399.7 1133.3,395.2 1133.4,392.3 1134.3,393 1137.7,390.1 
	1141.2,389.3 1145.4,386.5 1151.8,386 1154.3,384.1 1157.9,384.1 1159.2,383.1 1163.5,383.2 1169.2,381.3 1173.2,377.3 
	1175.7,375.9 1176.1,371.8 1179.2,369.4 1182.1,373 1183.8,371.7 1183.6,368.4 1185.3,368 1186.8,368.3 1187.7,366.8 1187,365.3 
	1188.9,364.5 1192.1,364 1192.1,362 1196.4,359.8 1198.1,360 1200.5,359 1205.1,361.6 1205.1,363.5 1210.8,363.7 1212.2,363 
	1210.8,360.9 1214.9,357.3 1217.5,354.2 1220.5,353 1225.7,353.2 1227.2,351.4 1225,349.1 1228.2,349.4 1231.8,351.1 1237.4,352 
	1241.1,352 1242.8,353 1244.7,352 1246.7,353.2 1243.2,357.6 1241,358.3 1241.3,360 1239.1,362.4 1242.2,364.6 1244,366.9 
	1251.8,370.9 1255.2,373.1 1259.9,373.7 1262.4,370.8 1264.5,365.5 1266.3,362.8 1267.6,358 1269.2,355.3 1273.6,347 1275.4,351.1 
	1276.3,354.2 1277.1,361.1 1279.8,360.9 1283.9,363.9 1283.4,367 1285.3,370.6 1284.4,375.5 1285.3,379.1 1289.9,381.1 
	1294.1,384.3 1293.8,386.2 1296,388.7 1296.1,391.9 1299.3,392.6 1300.6,394.8 1300.8,397.2 "/>
<polygon class="st0" points="1241.1,465.6 1244.4,465.3 1250.2,465.1 1249.2,467.1 1241.5,473.5 1235.1,475.5 1233.3,475.5 
	1232.3,471.8 1233.7,470 1233.9,467.1 1236.1,464.1 1238.8,464.4 "/>
<polygon class="st0" points="1140.9,337.7 1133.7,338.3 1121.3,335.1 1116.1,335.2 1110.6,334 1108.6,332.4 1104.9,331.9 
	1107.2,328.6 1112.5,329.7 1116.8,329.8 1118.8,331.6 1126.9,332 1128.3,330.3 1133.6,331.7 1141.8,331.6 1141.9,332.9 
	1139.2,333.4 1139.5,334.8 1143.3,335.2 1145.3,336.3 1150.1,337 1150.4,337.8 1146,338.5 "/>
<polygon class="st0" points="1105.4,324.5 1105.1,327.3 1103.4,326.8 1100.7,328 1095.3,323.8 1091.5,321.3 1086.3,315.8 
	1083.7,313.8 1079.2,306.8 1076.9,304.7 1075.5,304.6 1071.2,295.9 1068.8,295.7 1066.7,292.3 1062.3,289.7 1060.3,287.5 
	1057.3,285.3 1057.8,282.9 1062.9,283.9 1068,284.7 1070.3,287.4 1076.5,292 1082.1,296.6 1086.1,297.1 1086.9,298.7 1091.7,301 
	1093.6,301.9 1094.3,303.1 1096.6,304.3 1096,307.9 1099.2,308.7 1100.1,311.9 1103.1,313.9 1105.4,314.5 1106.9,317.4 
	1106.2,318.3 1106.2,323.8 "/>
<polygon class="st0" points="665.6,92.8 664.4,91.8 666.4,91.1 668.3,91.2 667.7,92.2 "/>
<polygon class="st0" points="669.1,89 668.6,90.1 665.3,90.4 664.1,88.6 664.9,87.9 666.1,88.4 668.7,87.4 "/>
<polygon class="st0" points="659.8,90.8 659.4,89.9 661.6,89.1 662.5,90.5 662,91.5 "/>
<polygon class="st0" points="764.2,168.4 762,169.4 758.4,169.3 758.6,167.9 762.3,167.1 764.7,166.6 766.6,166.2 764.6,167.3 "/>
<polygon class="st0" points="679.7,160.5 677.5,159.2 670.8,156.3 676.7,156.4 679.2,156.6 682.1,155.6 684.1,155.3 682.4,157.3 
	682.4,159.7 681.2,160.9 "/>
<polygon class="st0" points="654,147.5 653.3,145.1 657.3,144.1 658.2,146.1 658.2,151.3 657.5,151.3 655.7,152.3 653.8,152.2 "/>
<path class="st0" d="M991.1,272.6l2.6,2.7c0,0.1,0.3,2.5,0.3,2.9c0,0.4-0.6,1.9-0.6,2l-4.1,2l-2.6,0.2l-2.4-4.8l-0.4-3.8l0.8-2.4
	l0.9-2.4l0.1-1.3l4,2.3L991.1,272.6z"/>
<polygon class="st0" points="841.1,352.8 843.9,356.6 845.9,363.4 845.7,366.2 843.5,365.9 843.8,370.2 841.6,372.5 841.1,375.7 
	837.6,382.6 836.6,385.5 834.4,389.7 831.7,394.2 830.7,398.8 827.7,403 821.9,404.6 820.4,405.5 817.1,404.1 812.6,401 811.9,395 
	811,391.7 812.7,389.2 817.5,382.6 816,373.6 819,369.1 829.3,366.3 835.4,360.2 836.3,358.2 839.7,357.2 "/>
<polygon class="st0" points="1215.9,318.7 1210.6,318.3 1210.3,316.7 1216.1,317 1222.4,318.4 1221.6,319.5 "/>
<polygon class="st0" points="1192.5,342.4 1188.3,345.2 1186.3,345 1188.1,341.7 1191.6,341.3 1194.2,340.2 1196.9,337.7 
	1202.8,338.1 1202.3,339 "/>
<polygon class="st0" points="1170.5,343.4 1167,343 1166.6,342 1170.5,341.9 1173.9,343.1 1174.1,344.5 1172.9,344.7 "/>
<path class="st0" d="M1191.7,281.3l-1.9-2.7l0.3-1.5l-1.5-2l-1.1,0.6l-2.4-0.9l-1.9,0.2l-3,2.4c0.5-0.5,1.7-4.6,1.8-4.8l3.3-0.2
	l1.1-1.8l3.8,2.1l2.6-3.3l2.2-0.3l1-2.5l2.1,1l3.1,8.2l-0.4,1.7l-3-1.1v2.2l0.4,2.4l-0.7,1.7L1191.7,281.3z"/>
<polygon class="st0" points="1185.3,268 1181.9,266.1 1184.4,263 1187.3,261.1 1188.3,263.9 1186.4,266.6 "/>
<polygon class="st0" points="1187.2,257.3 1188.7,256.1 1193.4,256.9 1194.7,261.1 1192.8,261.1 1193.3,263.1 1193.8,265.7 
	1190.1,263.1 1190.2,260.3 1191.8,261.1 1191.7,259.4 1188.8,257.7 1187.6,257.9 1183.5,257.5 1182.8,254.8 1184.3,256.9 "/>
<polygon class="st0" points="1197.3,313.1 1194,311.9 1197.5,312.4 1202,312.2 1200.8,315.3 1199.9,313.4 "/>
<polygon class="st0" points="1184.8,102.7 1180.5,97.8 1180.5,95.9 1179.8,94.1 1184.1,97.4 1185.6,99.4 1188.8,100.1 1191.1,103.4 
	1194.7,105.7 1198.3,109.7 1203.9,111.8 1205.5,113.1 1201.7,113.5 1202.9,116.6 1205.6,119.8 1211.1,123.1 1208.5,123.5 
	1209.5,124.7 1208.3,125.4 1206,124.4 1201.8,119.3 1200.5,117.1 1198.5,115.3 1197.4,113.5 1188.9,104.9 "/>
<polygon class="st0" points="1116.1,227 1121.8,227.4 1121.8,228.6 1120.7,231.3 1118.3,233.1 1115.3,233.2 1113.3,231 
	1113.1,228.6 "/>
<path class="st0" d="M1152.4,339.8c0-0.1,0.7-2.2,0.7-2.6l2.9,1.3l-1,0.7L1152.4,339.8z"/>
<path class="st0" d="M1160.9,303.7l-0.3,3.8l-5.3,3.1l0.4,3.7l-1.8,2l0.1,2.9l-2.3,0.1l-2.5,0.9l-1.7,1l-2-3l-2.4,0.4l-2.6-1.8
	l-3.1,1.8l-3.6,0.1l0.2-1.7l-4.4,0.4l-2.5-0.8l-1.9-6.9l-2.4-0.4c0.1-0.4-0.4-5.5-0.4-5.8l-1.1-2.8l2.3-2.8l6.9,0.5l2.6-4.7l7.4-1.6
	l4.2-5.3l6.4-2.7l6.6-6.6l3,3.8l3.7,0.8l3.7,1.8l-3.4,2.1l0.9,1.1l-3.8,1.6l-0.6,1.7l0.7,1.2l-0.5,1.7l2.1,2.7l-0.2,1.7l3.2,3.5
	l-3.7,0.2L1160.9,303.7z"/>
<polygon class="st0" points="1165.6,339.4 1162.3,338.5 1161.2,338.8 1161.3,340.2 1158.5,340.9 1156.5,340.2 1157.2,339.1 
	1156.9,338.8 1160.6,338.8 1162.1,337.9 1167.3,337.7 1167.3,338.5 "/>
<polygon class="st0" points="1214,299.6 1208.8,303.3 1208.4,306.2 1209.3,307.1 1208.6,308.7 1205.7,307.8 1207.4,306.1 
	1208.3,304.2 1207.8,302.1 1208,297.4 1210.4,300.1 1212.4,298.7 "/>
<polygon class="st0" points="265.8,226.4 260,227 260.6,224.7 256.7,223 254.6,220.4 251.9,220.2 247.7,218.4 241.2,218 
	240.6,217.1 235.9,217 233.4,218.6 228,219.3 233.4,215.6 241.8,213.9 252.3,216.1 253.8,217.6 257.4,217.6 264.7,222.3 
	267.5,222.7 267.6,224.1 271.1,224.8 274.6,226.4 270.8,228.3 "/>
<polygon class="st0" points="319.8,29.4 326.5,26.2 338.5,26.5 334.5,28.9 331.7,29.9 324.3,30 318.7,31.2 "/>
<polygon class="st0" points="328.7,53.1 331.4,56.5 333.9,58.8 331.7,60.3 325.7,58.8 316.6,61.6 314.6,59.4 320.1,54.6 323,52.6 
	"/>
<polygon class="st0" points="407,47.8 408.7,50.4 399.8,56.4 394.2,51.1 385.3,51.4 389.4,55.3 391.7,58 390,61.7 386.1,63.1 
	377.8,60.1 379.2,63.1 381.5,66.2 368.1,62.9 363.5,57.4 355.9,58 351.7,57.3 348.2,57 352.8,53.6 360.7,54.7 365.6,52.9 
	375.4,45.8 374.2,44.3 370.3,42.9 364,37.9 362.6,39.2 348.2,38.6 344.3,37.4 338.8,38.3 332,35.3 335.3,31.9 342.4,28.1 354,27 
	348.4,30.6 346.8,34.2 349.8,31.3 357.3,27.5 367,27 366.2,30 373.2,31.2 381.1,30.9 387.5,33.4 396.9,35.8 400.1,40.2 395.5,42.7 
	398.9,44.6 "/>
<polygon class="st0" points="233.8,40 236.1,38.3 250,37.8 237.6,36.5 237,35.7 243.6,34.9 237,33.3 241.6,31.2 258.1,28.3 
	258.9,30.4 264.1,29.3 267.8,30.5 271.3,29.1 273.9,30.5 273.8,32.9 282.6,27.7 286.5,29 283.2,35.9 288,38 287.7,39.8 282.7,40.5 
	280.7,42.2 269.9,42.2 265.7,40.8 251.9,42.8 242.8,43.1 240,41.5 "/>
<polygon class="st0" points="222.3,34.9 218.6,33.7 217,31.9 234.2,25.2 246.6,24.4 249.1,25.8 257.2,25.5 258.1,27.6 240.8,30.5 
	"/>
<polygon class="st0" points="297.1,32 298,29.7 303.8,29 304,27.5 306.5,25.7 311.2,26.3 316.8,26.3 314.5,28.1 313.7,31.7 
	304,34.5 "/>
<polygon class="st0" points="400.5,114.2 400.5,116 398.9,118.5 401.4,119.5 399.2,122.2 393.7,121 393,119.7 389.6,118.7 
	383.8,119.7 374.9,119.3 381.5,114.9 392,105.7 396.2,105 394.6,107.4 391.2,109.2 392.6,110.8 394,112.7 400.2,111.3 401.8,111.8 
	"/>
<polygon class="st0" points="288.3,42.2 297,39.8 301.6,41.4 297.6,43 "/>
<polygon class="st0" points="448.1,325.5 449.6,326.9 451.5,333.3 450.7,339.1 443.8,347.4 441.1,348.4 437.9,353.6 435,354.9 
	434.3,357.8 433.3,363.3 435.5,367 434.3,369.4 433.8,374.2 432,376.7 431.9,380.9 428.3,386.3 427.8,390.6 425.3,392 423.6,394.3 
	413.4,396 406.9,398.1 395.1,404.3 395.5,409.5 396.5,414.7 395.9,417.3 390.3,421 390,424.5 387.2,424.4 384.4,428.4 384,430.7 
	380.9,435.9 378.6,439.5 374.5,442.2 368.1,441.1 365.3,440 361.8,440.1 358.9,438.6 359.2,441.2 365.1,443.5 366.1,446.2 
	368.7,447.7 367.5,454.5 359.3,457.6 348.2,457.3 350.4,460.6 350.3,462.8 351.4,464.5 346.4,466.1 339.3,464.8 341.7,469.8 
	346.5,470.6 347.5,472.1 343.4,472.1 344.8,474 343.7,477 344.9,479.4 338.2,483 339.1,485.4 341.8,488.4 347,489.4 348.1,490.8 
	347.9,493.9 344.6,496.2 344.3,499.5 342,501.5 343.2,505.2 348.9,509 349.6,511.4 365.1,519 346.4,518.1 342,510.7 332.6,512.5 
	325.7,507.4 317,494.9 310.7,482.8 307.6,467.5 302.5,467.9 296.3,451.2 298.2,448 299.5,434.5 295.1,419.2 291.9,376.9 
	277.5,368.6 268.1,364.8 261.4,359 249.5,342.4 246.6,336.8 241.3,331 236.9,329.7 237.8,328 234.6,323.2 238.9,318.3 240.9,317.7 
	240.8,315.4 238,314.2 236.4,309.7 238.6,307.5 240.5,301.4 246.1,300.3 246.4,298 249.1,295.2 253.3,291.4 254.3,282.9 
	251.7,276.7 249.9,274.4 250.9,272.3 245.3,270 240.3,272.1 241.6,275.1 238.8,276.2 233.9,273 228.4,272.8 223.7,268.7 
	216.4,265.1 218,261.9 219.9,261.4 217.5,258.4 216,260.2 213.3,258 208.3,253.3 200.6,252.9 197.1,251.4 197,250 190.8,249.7 
	179.3,241.5 170.6,243 149.7,237.4 145.4,234.6 140.9,233.8 137.6,230.6 133.6,229.7 132,224 133.8,222 133.8,217.6 128.2,211.4 
	120.8,205.4 120.8,202.6 117.1,197.8 117.1,196 111.9,190.7 111.3,182.6 109.1,181.8 105.3,181.1 103.3,182.8 103,188.1 
	106.9,192.6 107.1,195.5 110.9,202.2 111,204.6 112.4,206.5 112.2,208.5 115.7,211.1 115.1,214.2 110.4,209.6 106.5,208.1 
	106.8,205.3 107.6,203.8 104.3,200.9 102,201.1 98.1,198.1 98.2,196 101.1,195.4 101.6,193.6 97.9,188.5 96.2,175.1 90.5,170.4 
	85.8,169.7 85.6,163.9 84.6,161.8 84.7,158.8 85.6,156.8 83,152 84.6,149.4 84.2,147.9 89.3,142.8 90.9,138.2 106,124.5 110,116.7 
	110,114.8 105.4,110.5 105.5,107.9 111,108.7 112.9,110.4 113.3,112.4 116.8,115.7 118.8,114.1 116,110.7 112.6,107.4 108.1,106.3 
	108.4,104.2 110.1,101.4 109.7,94.4 112.1,91.9 112.6,89.8 111.1,88.2 109.1,83.6 110.7,82.1 110,79.6 105.9,78.9 102.6,73.9 
	90,71.6 85.7,71.7 81.8,69.8 72.8,70.5 71.4,73 55.3,75.8 63.8,70.8 67.9,69.4 60.7,70.9 44.7,76 10.9,86.8 6.9,88.8 0,88.6 
	5.3,87.6 14.4,83 29.4,78.5 24.6,77.9 19.3,77.4 14.6,77.8 20,73.2 13.2,74.5 11.2,72.3 13.9,71.2 14.5,68.1 16.2,67 19.4,66.3 
	30.9,62.8 34.2,62.7 38.4,61 44,60.4 48.1,58.8 53.8,56.5 44.4,57 39.9,56.7 33.4,57.3 35.6,52.9 51.6,50.4 52,51.7 59.3,51.4 
	64.2,50.9 62.3,48.8 59.6,48 59.9,46.3 57.5,43.7 61.6,42.4 68,42 78.2,39.3 88.6,36.5 97.9,36.3 101.3,35.6 107.6,35.7 111.6,34.4 
	123.9,36.5 128.8,36.5 136.9,38.1 149.8,38.3 154.1,40.1 159.5,40.2 163.1,42 170.5,40.6 178.8,40.1 190.6,38.4 196.7,38.8 
	201,37.5 201.6,40.3 206.5,40.6 209,39.4 210.8,39.8 220.9,39.9 226.8,42.6 233.1,42.3 235.7,43.8 232.7,44.9 233.5,46.8 
	244.9,46.3 248.7,45.3 251.4,46.1 256.8,44 267,43.1 270.8,45.6 288.2,45.8 289.6,44.6 296.7,45.3 296.4,46.6 305.3,43.8 308,40.8 
	305.2,39.1 308.7,35.3 314.1,33.8 317.8,32.8 320.1,33.8 320.1,37.7 316.5,39.6 320.4,40.6 319.6,43.9 324.6,41.6 326.9,42.7 
	326.3,44 323.1,46.2 324.5,47.8 328.8,47.1 340,39.7 346.5,39.8 350.4,41.5 347.9,43.9 344.8,45.1 344.6,47.2 334.6,51.6 
	331.4,50.3 326.6,51.3 322.4,51.3 320,53.4 316.2,53.9 315.6,55.2 300.4,60.5 297,61.8 295.9,63.2 290.7,63.5 281,66.3 273,70.8 
	266.8,77.7 271,77.8 269.2,83.5 274.6,83.1 282.2,85.2 283.8,86.9 292.5,90.3 297.9,90.4 301.3,91 298.3,94.7 296.2,97.9 
	296.2,101.4 299.5,105 303.4,103.2 306.1,103.2 308.6,100.9 308.9,97.4 310.4,95.1 310.6,92.5 323.8,87.9 330.3,81.5 327.3,77.8 
	334.6,74.6 336,69.7 338.6,67.5 339.5,65 343.3,63.7 353.5,65.4 355.7,64.5 360.2,67.8 365.5,70.5 362.5,74.6 363.4,77.2 
	368.2,78.9 374.6,76.7 382.2,72.8 386.6,82.5 386.2,84.9 384.9,85.9 388.3,90.6 395.9,92.9 395.7,95.5 399.5,97.5 397.9,102.2 
	394.8,104.2 387.5,104.3 374.3,109.7 366.2,109.1 359.7,109.8 350,109.3 346.1,111.3 338.5,113.4 333.6,117.5 328.4,120.4 
	339.7,115.8 345.9,113.3 353.9,113 357.1,114.2 350.3,117.4 353,118.4 351.5,120.1 352.4,121.6 352.6,123.7 355.7,125.6 
	360.7,126.4 363.5,127.5 353.6,130.5 348.8,130.3 343.1,135 340.7,134.4 340.7,132.8 346.2,128.9 349.9,128 349.9,126.1 338.3,129 
	334.4,131 329.5,131.6 327.7,133.3 323.6,133.6 318.1,137.8 317.8,141.2 311,143.4 306.6,143.7 299.2,146.3 299.1,147.9 
	293.5,151.7 288.3,156.5 287,152.8 286.2,155 285.5,159.3 285,162.8 282.8,165.8 280.2,166.6 280.4,169 274.8,169.7 271,172.4 
	268.4,173 261.6,176.5 256.8,178.7 253.6,183 251.5,185 251.7,189.6 252.9,193.8 254.1,197.8 254.3,201.7 249.5,206.1 247.2,205.1 
	242.6,197.2 242.7,194.6 243.3,191.6 238.7,187.6 234.1,189.1 231.9,186.6 228.7,185.7 223.8,186.1 220.1,187 211.6,186.9 
	214.4,188.2 214.9,190.5 206.9,190.2 205.4,188.8 202.4,189.2 198.4,188.2 182.8,193.4 180.7,194.7 176.9,196.8 175.2,199.9 
	175.1,203.2 171.1,210.4 169.9,216.1 170.4,220.4 170.2,223.8 173.3,229.6 176.4,231.8 178.7,232.1 180.2,233.5 185.5,232.3 
	195.9,232.5 199.1,229.8 201.5,222.9 209.9,220.7 218,220.8 215.6,224.5 215.1,227.9 211.5,233.3 208.6,236.3 208.4,239.7 
	204.8,242.6 208.3,243.8 215.4,243.5 217.7,242.5 225.6,243.3 227.7,245.3 229.7,245.7 229.8,248 228,252.5 226.9,258 226.1,262.9 
	226.6,265.2 233.3,269.5 237.2,270.5 245.4,267.8 248.9,268.2 254.6,270.9 254.9,273.3 262.7,267.1 262.2,264.4 270.5,260.5 
	274.6,260.1 280,257.5 283.7,256.9 280.2,260.1 281.8,264 280.4,266.8 281.8,269.2 284.1,266.5 282.7,263.2 289.3,259.8 
	289.9,257.5 293,260.5 295.9,261 297.1,262.1 305.8,263.1 311.6,265 318.3,263 325.9,262.9 324.1,265.6 328.5,266.6 330.9,269 
	330.4,270.9 338.4,273 341.2,276.2 342.6,278.7 347.9,281.5 360.7,282.4 367.2,283.8 374.5,288.4 378.1,296.5 380.1,298.8 
	380.4,303.4 382.6,305.2 387.7,306 388.1,310.3 390.8,307.5 405.2,312.3 406.1,315.2 410,313.6 425,316.9 428.6,316.4 438.9,322.7 
	"/>
<polygon class="st0" points="392.3,6.9 380.6,6.3 376.8,4.4 383.3,4.6 405.6,1.7 415.6,1.7 425.5,2.5 436.9,2.6 443.9,1.9 
	449.4,1.5 456,3 444.1,4.9 430.2,7.2 417,10.5 409.8,10.4 398.9,13.4 394.2,13.8 387.6,16.1 387.6,17.6 383.4,18.3 376.2,18.5 
	373.6,17.9 370.1,18.4 356,18.4 360.4,16.6 368,15.7 368.6,14 375.4,14.3 386.1,10.5 385,9.6 "/>
<path class="st0" d="M1308.6,329.5l-3.4-0.5l-1.5-1.9c0.8,0.1,2,0.1,3.1,0.1c1.6,0,3,0,3-0.1l1.2-0.6l2.4,0.2l3-1.4l0.9-0.9l1.8-1.3
	v-1.8l2.1,0.9l-0.1,1.3l-2.8,3.5l-2.1,1.3l-2,0.9L1308.6,329.5z"/>
<polygon class="st0" points="551,59.7 544.6,59.4 547,57.9 544.1,56.2 546.6,54.7 545.5,53.6 543.9,53 540.2,53.3 542.5,51.8 
	545.8,50.8 549.8,51.9 550.8,53.9 553.7,51.7 557.6,52.8 561.4,51.8 565.7,51.7 568.3,51 572.3,51.3 576,54.1 574.4,56.1 
	565.7,58.3 560.9,59.5 557.7,60.8 "/>
<polygon class="st0" points="545.3,39.6 536,42.8 518.8,45.4 515.5,44.5 515.2,45.5 509,48.3 506.1,50.1 494.3,52.9 492.9,52.6 
	493,51.5 491.3,51.4 489.1,53.3 483,53.6 478.3,57.4 475.1,61.4 469.2,63.5 469.2,65.9 460,72.5 456.2,71.4 454.4,69.5 450.6,68.1 
	447.5,69.1 445.1,68.1 440.2,61.4 440.4,56.8 440.4,54.2 439.3,48.8 444.6,43.8 451.2,42.8 452.3,41.7 449,36.5 455,37.3 
	455.7,35.6 451.1,33.5 446.7,33.4 449.3,27.8 447,21.8 438.9,19.4 416.4,18.4 416.3,16.1 414.1,13.1 439.5,10.6 439.3,8.6 
	442.3,8.1 462.5,4.3 471.2,4.4 482.1,2.7 496.6,2.8 514.5,1.3 532.4,0.9 543.2,0 557,0 570.4,1.9 569.7,3.5 571.8,4.6 596.2,4.3 
	590.7,6.4 584.5,7.2 576.3,9.9 573.3,10.3 570.5,12.1 566.8,13.7 571.2,15.4 571.3,16.5 565,17.9 567.1,20.8 567.2,21.8 564.8,24 
	564.1,24.9 556.3,28.1 550.5,27.8 543.5,29.2 548.3,31.8 550.9,32.2 553,33.7 552.9,37 547.1,37 544.6,34.7 542.2,34.8 542.2,35.8 
	540.2,37.5 543.4,37.5 548,38.9 "/>
<polygon class="st0" points="598.4,85.8 598.4,83.9 597,83.1 597.3,82.7 599.5,82.4 599.9,80.4 602.3,79.6 602.6,78.5 609.7,78.5 
	609.3,79.5 605.9,80.5 605.5,81.5 613.2,81.6 614.4,84 611.4,85 611.2,87.7 614.6,89.8 615.4,92.3 619.3,94 619.2,95.5 619,96.3 
	620.3,97.2 620.6,98.6 625.7,99.9 625.7,101.2 622.9,103.4 621.4,104.1 623.8,105.2 625,105.5 624.5,106.4 611.2,107.8 606.6,107.6 
	600.9,109.7 597.4,109.4 603.8,105.5 607.5,105.1 607.5,104 600.5,103.6 601.5,102.2 603.6,101.3 602.4,99.3 603.6,98.3 607.7,98 
	609.2,95.7 606.6,93.3 607.5,92.1 606.2,91.4 604.2,91.7 601.9,90.7 600.3,90.3 600.4,89.3 597.9,88.7 598.9,87.5 600.7,86.1 "/>
<polygon class="st0" points="657.2,141 656.1,142.8 654.4,140.6 654.3,139 657.5,137.5 "/>
<polygon class="st0" points="1199.8,170.9 1199.6,172.2 1192.6,171.2 1199.2,165.7 1205.3,165.6 1207.4,164.6 1209.8,165.7 
	1210.9,165.1 1210.7,163.2 1212.6,159.4 1213.8,160.9 1217.7,158.7 1220,156.4 1219.7,150.9 1217.7,148.6 1216.7,145.6 
	1217.2,143.8 1218.8,143.3 1222.4,145.1 1225.3,147.8 1227.5,151 1227.6,153 1228.5,154.3 1227.7,155.4 1229.3,158.3 1229.8,160.3 
	1231.2,163 1231,167.4 1228.7,166 1226.7,168.2 1224.3,168.1 1222.5,170 1218.5,169.2 1216.8,168.1 1217.7,170.4 1216,173.1 
	1213.9,173.1 1210.4,169.3 1206.4,168.8 "/>
<polygon class="st0" points="1206.3,174.3 1204.3,176.3 1200.9,174.7 1202.2,172.2 1204.7,171.6 1206.7,170.9 1209.3,171.9 
	1209.2,173.7 "/>
<polygon class="st0" points="1193,177.6 1189.8,175.3 1192.8,172.9 1196,173.8 1200.1,176.3 1200.2,180.9 1197.1,182.7 
	1194.1,180.6 1194.6,178.6 "/>
<path class="st0" d="M1164.7,206.5l2.5,0.8l0.3,2l-0.7,1.5l-0.5,2.7l-0.9,2.1l-0.7,2.6l-3.4-2.2l-0.7-2.1l0.4-3.2l1.5-3.4
	C1163,207.1,1164.6,206.5,1164.7,206.5z"/>
<polygon class="st0" points="1176.7,238.6 1176.5,240.9 1174.1,242.9 1174.8,247.6 1176.5,249.4 1181.2,249.2 1185.8,250.3 
	1187.2,253.6 1187.4,255 1177.6,251.2 1174.8,250.3 1171.3,249.3 1169.9,247.8 1168.1,248.3 1165.8,245 1166.2,241.9 1167.6,239.5 
	1167.2,232.9 1170.6,232.8 1173,233.6 1174.2,233.2 1175.7,237.1 "/>
<path class="st0" d="M1169.8,251.6c0.4,0.2,4.1,1.5,4.3,1.6l0.9,1.8l-0.5,1.5l-2.4-1.5L1169.8,251.6z"/>
<polygon class="st0" points="1208.3,318.2 1207.7,319.3 1201.2,318.9 1203.5,317.8 "/>
<polygon class="st0" points="1184.1,310.6 1183.2,311.5 1179.8,312.3 1181.5,315.1 1182.5,316.8 1183.2,319.1 1185.3,320.9 
	1186,322.1 1182.2,322.5 1179.1,324.1 1178.3,320.8 1176.8,318.7 1176.5,315.2 1173.1,316.4 1174.8,319.9 1173.2,326.3 1171,327.5 
	1169.3,326.5 1170.8,321.7 1169.3,318.6 1167.4,318.1 1166.6,315.6 1168.9,314.1 1169.3,310.8 1170.7,309.1 1171.3,305.1 
	1174.2,302 1176.5,301.1 1177.4,299.8 1182.7,301 1189.7,301.4 1192.1,300.3 1195.1,297.8 1195.8,298.7 1194,302.8 1189.7,303.9 
	1183.6,302.9 1174.3,303.8 1173,306.4 1174.6,308.9 1176.9,310.2 1179.4,308.1 1181.6,308.8 1187.4,307.7 1188.3,308.7 "/>
<polygon class="st0" points="1181.5,338.9 1178.8,339.5 1173.9,339.1 1170.2,338.9 1171.9,337.8 1176.1,338.2 1180.5,338.2 "/>
<polygon class="st0" points="1285,320 1292,324.7 1291.2,326.6 1294.4,327.2 1296.4,328.2 1299.4,328.7 1301.2,330.5 1296.8,332.2 
	1297.7,334.2 1301.2,337.1 1303.6,340.9 1306.4,340.2 1306.8,342.6 1308.7,342.7 1312.6,345.7 1311.8,346.6 1308.6,346.7 1306,345 
	1299.7,344.8 1296.8,343.4 1294.3,341.2 1291.8,336.5 1289.1,336.4 1285.6,334.6 1282.4,335.4 1279.5,338 1279,340 1275.3,341.4 
	1269.6,341.3 1263.5,336.6 1259.3,336.7 1257.2,338.4 1253.2,338.2 1254.9,335.1 1258.2,333.3 1254.5,326 1245.3,322.8 
	1242.7,322.6 1236.5,319.1 1234.1,319 1233.8,321.3 1232.5,322.1 1229.8,317.7 1228.2,316.4 1231.2,316 1236.5,314 1235,313.4 
	1229,313.2 1227.6,311.3 1224.8,310.5 1222.3,310 1222.1,308.3 1224.2,309.1 1230.6,307.1 1234.7,307.6 1238,309.7 1238.5,312.8 
	1242.9,318.2 1247.9,313.8 1249.9,313.5 1253.9,310.9 1269.4,315.1 1279,317.8 1281.5,318.1 "/>
<polygon class="st0" points="1060,237.6 1058.2,241.2 1054.3,242.3 1052.8,243.8 1050.6,242.6 1048.3,242.3 1048.3,236.3 
	1042.6,227.6 1040.4,227.6 1035.2,222.8 1034.5,221.1 1031.1,216.7 1027.2,218.1 1021.4,219.3 1019.2,219.2 1016.4,219.6 
	1011.1,221.7 1011.9,224 1010.8,226 1003.8,228.9 1000.4,232.6 998.3,234.1 997.2,235.8 992.1,238 991.8,240.1 987.8,241.1 
	986.1,242.9 984,243.3 985.7,251.3 985.2,254.6 984,256.9 983.2,259.6 984.3,262.7 982.9,264.5 981.2,265.6 980,268.3 976.6,269.6 
	974,272.4 970.8,272 966.5,264 964.1,260.9 961.2,256.3 957.8,249.2 953.7,243.9 951.8,239.5 948.7,233.2 947.7,228.6 947.1,225.5 
	946.1,221.6 945.7,218 943.2,219.4 943.4,222.1 937.3,223.3 934.5,221 929.6,217.9 933.5,215.9 929.6,215.3 924.7,212.5 922.4,212 
	917.4,207.8 916.7,205.6 905.7,205.7 896.4,207 874.2,203.8 871.5,199.2 868.1,199 866.8,200.2 863.9,200.4 861.3,201.2 847,195.6 
	844.7,191.7 839.8,187.3 835.9,186.4 832.8,187.4 831.4,189.5 831.7,192.8 834.2,195.5 835.3,197.6 840.3,199.7 841.9,201 
	841.3,204 842.7,206.1 844.4,204.6 846.3,202.8 848.1,204.8 848.1,207.4 846.7,208.7 848.5,210.4 852,210.9 858.6,210.6 
	864.1,207.2 868.2,202.4 868.8,204.7 874.8,212 879.8,212.4 886.1,218.1 883.4,223.2 881.8,225.3 879.5,225.3 878.9,227 
	878.9,230.4 873.8,232.2 873,234.6 867.9,235 866.9,238.1 864.8,237.7 854.3,241 853.7,244.1 850.6,245.9 841.3,247.5 838.1,250.2 
	832.8,250.3 830.5,252.4 824.3,253 821.1,255 814,254.2 813.9,249.9 811,243.4 811.5,240.8 809.6,237.6 804.5,233.9 804.5,231.6 
	799.5,226.6 795,224.8 792.7,220.3 792,216.8 787.3,210.5 784.5,209.1 782.1,205.6 776.2,199.5 774.9,197.4 773.1,194.9 
	771.8,190.5 769,195.8 765,193.3 760.3,189 761.5,192 765.9,196.9 766.1,199 769.7,202.9 776.5,215 780.4,216.8 784.7,224.4 
	785.7,231.5 787.8,233.1 789.3,234.4 791.6,234.9 794.2,239 794,242.2 796.8,245.4 802.7,247.4 807.3,250.8 810.5,253.5 
	812.8,255.1 814.3,257 813.9,260.6 819.8,264 823.1,263.8 825.4,262.5 828,263.5 831,263.2 834,261 836.3,261.6 838.7,260.8 
	842.8,260.7 844.6,259.7 846.7,259.4 848.7,258.1 850.7,258.8 849.5,267.7 846.2,273 838.3,286 831,293.6 824.5,297.3 820.5,298.6 
	815.2,302.8 807.8,310.2 807.2,311.7 803.8,313.2 801.4,315.5 799.1,319.2 796.6,323.2 794.4,325.6 794.3,329.5 797.4,331.6 
	795.5,333.8 796.6,336.3 795.9,338.9 796.9,342.7 800.7,346.2 800.7,350.6 800.8,356.5 801.5,361.3 800.2,365.8 796.3,369.6 
	792.2,372.4 783.6,374.9 779.8,379.1 776.9,379.8 773,383.5 774,388 776.2,392.1 775.8,397.5 772.9,401.8 768.4,403.7 764.3,403.8 
	762.3,406 763,409.4 762.2,411.7 761.9,413.8 760.4,416.9 756.4,419.1 752.2,423.7 749.5,427.1 743.8,431.1 739.4,434.5 
	735.6,436.2 731.7,436.7 729.7,437.7 726,438 713.2,438.6 711.2,439.8 707.7,439.3 704.1,441 698.7,439.1 697.3,436.8 694.5,433.8 
	697,432.8 697.1,429.9 692.7,425 692,419.9 689.3,417 685.3,414.5 682.5,409.1 681.9,403.3 680.5,400.4 680.6,394.6 681.2,393 
	674.7,386 671.7,380.9 667.6,375.5 668,372.4 668.6,367.2 670.8,363.7 672.5,357.4 677.1,353.1 677.9,351.2 677.9,347.3 
	674.8,341.4 675.8,337.7 674.7,334.4 670.6,329 671,327.2 669.9,324.6 668,322.5 659.7,314.5 656.7,311.4 655.2,308.2 657.2,306.1 
	658,300.9 657.7,299.2 659,296.2 659.7,292.8 657.8,289.4 655.3,289 653.3,286.7 641.3,287.5 639,286.2 637.8,283 634.7,280.9 
	630.2,279.9 624.7,279.9 621.6,280 618.1,281 616.9,282.3 614.1,282.4 603,286.2 600.6,284.9 597.9,285.6 593.7,283.9 588.5,284.9 
	585.9,285 577.2,287.8 568.7,283.7 565.4,281 562.6,280.4 560.5,277 554.1,274.9 553.5,273.1 552,269.6 549.2,266.1 545.9,264.4 
	544.5,262.1 540.6,259.3 536.3,256.4 535.6,253.6 536.9,251.4 535.9,249 533.5,247.4 536.6,243.6 536.7,241.9 538.6,240 
	540.2,232.2 538.9,230 539.2,226.1 537.5,222.8 537.5,218.3 539.7,216 540.8,212.9 544.7,210.2 547.1,209.2 547.5,206.9 
	548.2,202.8 550.7,201.8 554.7,200.4 555.6,196.3 561.1,194.6 568.2,191 571.4,186.9 571.2,182.1 574,178.8 574.7,177.3 
	577.7,175.5 581.1,173.4 585,172.3 590.5,164.8 594.1,167.1 601.1,167.3 604.5,167.6 609.5,167.2 611.5,165.2 614.8,165.1 
	618.4,162.3 626.1,162 636.7,160.3 640.5,161.7 644.6,160.1 654.4,160.1 658.1,158.9 660.4,159.3 663.8,159.9 664.3,161.9 
	662.5,163.5 663.7,165.8 660.4,171.1 665.5,174.8 672.1,176.9 680.4,177.1 683.4,178.8 685,182.1 691.5,182.7 695.5,184 
	698.7,185.9 703.3,185.5 704.6,182.4 704,180.4 707.2,177.1 710.2,177.1 712.3,176.2 718.6,177.5 727.1,180.7 733.7,181.7 
	741.8,183.1 744.7,184.1 747,184 752.8,181.2 758.9,183.3 767.9,183.1 770.5,178.1 771.8,173.8 773.9,170.4 774.1,161.7 
	765.3,161.7 762.3,163.3 758.2,163 753.1,160.9 749.5,161 747.7,162.3 745.1,162.2 740.5,160.5 736,161.1 734.4,157.2 731.1,155.6 
	733.5,154.2 730.9,151.6 732.2,150.3 730.1,149.2 732.5,147.1 741.7,146.7 743.3,145.6 744.5,144.3 750.6,144.5 754.1,142.9 
	759.8,141.1 765.6,140.4 768.7,141.3 773.5,142.8 780.5,144.4 785.4,144.3 788,144.3 794.2,141.9 794.2,139.7 786.3,134.5 
	773.4,129.6 772.3,128.1 775,127.9 776.2,125.3 775.8,122.8 779.9,120.6 775.1,120.7 772.9,122.5 765.6,123.3 761.2,125.4 
	765.1,127.8 770.4,127.8 768.8,129.4 763.4,129.4 760.4,131.5 758.5,129.5 755.6,127.6 757.8,125.9 753.7,125.1 750.3,123.3 
	745.1,124 742,127.1 741.5,129.6 739.2,130 738.1,133.9 736.3,135.8 735.3,137.9 736.1,140.6 737.3,142.1 740.9,144.1 735,144.8 
	733.5,146.3 722.4,145 719.6,145.8 717,146.7 715.8,148.1 718.1,150.5 720,154.3 719.5,156.7 714.8,155.1 710.8,155.8 713.8,156.3 
	716.4,157.6 717,161.7 713.9,160.6 709.2,156.3 707.5,154.7 703.1,149.1 701.1,147.6 700.7,142.3 697,138.7 688.6,134.6 686.1,134 
	681.8,130.7 677,128.3 674.8,126.7 672.5,127.5 669.4,127.8 670.2,129.5 670,132.2 675.2,135.6 676,137.8 681.5,141.2 685.3,141.4 
	691.3,144.6 695.8,147.1 693.4,147.6 690,146.7 688.3,149.4 689.7,151.5 688.5,152.9 688,154.9 684.6,156.2 685.8,152.8 
	684.7,148.2 681.1,147.3 679.2,145.6 675,143.3 670.4,142.4 662.3,136.8 660.1,133.9 655.7,131.6 650.8,133.9 648.6,133.7 
	645,136.2 636.7,134.9 633.4,135.3 630.5,136.9 630.5,140.9 624.6,144.3 621.1,145 614.7,151.2 615.9,153.7 613,155.7 612.8,157.5 
	606.9,161.1 598,161.6 595.4,163 591.1,163.3 587.3,159.9 583.3,159.4 577.1,159.7 577,154.4 575.2,152.8 579.8,146.6 579.1,142.4 
	580,139.1 579.6,136.7 582.2,135.7 583.7,134.6 587.7,135.1 610.7,135.8 614,127.4 610.2,122.1 606.5,118.8 600,117.8 598.8,115.2 
	605.8,114.4 609,115.3 612.2,114.4 611.7,111.6 615.8,112.2 620.3,112.2 625.3,109.5 626,106.6 630.1,105.8 636.7,102.2 638.5,99 
	641.1,98.8 644,97.5 647.9,97.7 651.9,96.1 655.3,93.9 653.3,90.3 651.5,88.5 653.3,86.3 654.9,83.9 657,83.3 660.4,81.6 
	660.3,84.4 660,87.3 658.2,89.1 659,92 661.6,93.6 670,93 672.4,93.4 676.1,95.9 691.8,92.3 694,92.6 697.8,93.1 703.2,90 
	702.6,87.2 704.2,82.7 708.5,81.4 711.8,83.8 714.2,82.8 714.5,79.5 712.3,77.7 713,76 718,74.5 728.7,75.7 733.9,73.2 730.6,72.6 
	728.2,70.5 717.7,71.5 712.2,73.1 706.3,72.9 702.5,71.3 702.7,68.1 700.6,66.3 700.5,63 707.7,59.3 713.8,55.4 712,53.5 
	704.1,53.1 699.8,55.8 701,57.7 695.5,60.5 687,63.6 685.8,66 686.4,69.1 687.6,71 690.2,71.5 692.6,73.6 691.2,75.2 690.5,76.7 
	684.7,78.5 682.5,87.4 677.9,87.6 676.5,89.7 671.3,89.7 669.9,87.1 670.8,85.2 665.1,79.5 662,74.5 660.1,76.5 652.5,79.5 
	647.7,80 644,78.3 643.5,75.4 641.5,72 641.3,66.1 649.3,63.5 654.1,61.1 658.3,60.8 662,57.9 664.6,56.7 668.7,54.3 669.4,51.9 
	673,49.6 676.5,48.2 678.6,45.9 680.8,43.9 684.4,43.4 688,40.3 690.3,38.1 692.4,38.4 700,38.4 704.8,35.7 712.6,35.5 716.6,35.5 
	721,36 730.1,37.1 729.3,38.6 736.9,39.7 745.5,41.6 754.5,42.7 767.1,47 766.8,49.5 762.2,51.8 750.2,51.6 738.5,49 741.6,50.8 
	747.4,52.6 749.7,55.5 750,57.3 759.1,59.1 754.7,56 755.6,54.3 765.1,56.9 764.6,54.3 767.7,52.9 772.4,51 778.8,50 776,47.4 
	776.7,44.6 774.4,43.5 783.9,43.8 781.4,46.4 784.2,48.4 788.7,49 790.9,46.1 799.4,44.6 805.9,42.3 809.3,42.4 815.4,43 
	825.7,41.8 830.3,42.9 829.2,40 831,39.1 840.8,39.2 858.2,44.1 860.5,43.3 852.2,40.2 848.2,36.1 849.4,34.2 851.9,33.2 
	851.6,30.6 856.2,28.9 862.2,29.3 864.3,30.9 864.3,33.2 866.8,35.3 870.5,38.2 872.8,42 875.2,43.3 875.8,45.8 872.4,49.4 
	868.9,49.5 871.1,51 878.1,51.4 879.4,50.1 882.7,46 879.5,43.7 882.9,41.7 875.5,41 872.8,38.4 868.5,34 871.3,32.4 871.1,29.9 
	873.5,30.5 875.6,32.4 878.8,32.7 882.5,31.3 888.8,31.7 894.2,32.7 889.1,30.5 887.8,28.4 888.4,26.8 904,26 902.4,23.6 908,22.3 
	910.2,21.1 928.6,18.8 938.5,18 945.1,14.9 952.3,16.3 958.2,16.7 962.5,18 974.4,18.4 983.2,21.9 978.6,24 971.2,28.6 982.4,27.9 
	986,26.3 991.3,27 1024.6,28.8 1023.1,27.3 1026.4,26.4 1032.3,28.5 1040.4,27.7 1048,30 1049.5,32.2 1062.1,36.1 1060.3,32.9 
	1067.5,34.4 1075.2,32.8 1084.3,32.9 1082,31.4 1084,29.5 1111.9,31.8 1120.8,33.4 1126.8,34.2 1132,35.9 1142.3,35.4 1148.7,35.6 
	1154.2,36.4 1158.3,36.8 1162.7,38.8 1167.9,39.9 1184.9,39.6 1192.4,40.8 1204.3,42.3 1203.3,40.7 1197.5,39.1 1211.2,38.8 
	1221.6,40 1231.4,41.4 1241.3,42.4 1250.6,43.5 1260.3,46.2 1267.4,48.4 1279.8,49.7 1289.3,53.1 1286.3,53.2 1288.2,55.2 
	1289.9,57.3 1285.6,57.5 1274.9,55.8 1268.7,53.9 1263.1,53.9 1259.6,52.4 1261.8,54.8 1259.9,56.8 1257.3,57 1261.8,59.2 
	1270.2,61.7 1272.6,62 1274,63.4 1268.5,64.8 1265.2,64.1 1259.4,66.8 1257.1,70.3 1254.5,72.3 1247.4,71.6 1244.2,71.7 
	1242.3,74.5 1239,72 1236.5,72.9 1232.9,73.2 1233.8,76.2 1234,79.2 1236.7,80.2 1241,80.2 1246.5,85.1 1251.3,90.6 1250.7,92.5 
	1247.8,93.3 1248.1,95.4 1251.8,97.1 1248.1,98.1 1248.7,101.1 1250,105.6 1247.6,105.5 1236.3,98.4 1231.2,94.5 1225.8,90.8 
	1220.2,85.5 1220,83.5 1218.4,81.2 1221.5,79.7 1223.4,78.2 1222.5,75.6 1223.4,71.5 1225.7,70.2 1221.8,65.8 1220.1,63.7 
	1217.3,63.4 1220.2,66.9 1218.3,67.7 1216.8,70.4 1213.6,69.1 1208.7,66.5 1198.5,66.7 1198.9,69.7 1197.8,71.6 1198.5,73.7 
	1202.8,75 1197.3,75.8 1190.1,76 1179.5,74.3 1173.3,74.9 1168.9,76.1 1166.5,75.1 1156.3,75.6 1155.6,77.5 1153.6,79.6 
	1151.9,83.4 1152.1,86.7 1147.6,91.8 1155.4,92.7 1158.5,95.7 1160.7,95.5 1164.2,96.4 1164.1,94.5 1172.2,95.7 1177.8,97.5 
	1182.9,102.5 1183.3,104.5 1191.6,113.2 1191.1,117.5 1190.4,121.3 1190.1,125.4 1188,129.3 1186.1,135.1 1183.1,137.8 
	1177.8,138.1 1174.6,136.2 1171.3,138.4 1170.4,141.7 1171.1,144.1 1170.7,145.9 1165.9,148.8 1167,152.4 1174.3,155.7 1180.5,162 
	1183.1,167.4 1172.3,170.3 1170.4,166.2 1169.4,163.7 1167.4,161.7 1168.5,160.3 1166.9,157.8 1161.9,156.1 1157.3,155.4 
	1156.9,151.5 1150.9,149 1146.3,149.8 1141.2,152.7 1139.2,150.2 1140.5,147.9 1138.1,145.5 1134.4,145.5 1133,147.7 1130.4,148.6 
	1129.7,151.3 1124.9,152.3 1126.2,155 1132.4,155.8 1133.7,158 1136.3,159.6 1139.8,157.9 1145.3,159.1 1150.1,159.2 1146.3,160.9 
	1144.1,162.6 1143.3,164.1 1140.7,165.5 1140.2,168.4 1144.9,169.6 1151.3,175.6 1152.7,178 1156.6,180.8 1158.1,183.5 
	1155.2,186.8 1159.2,186.8 1160.5,188.5 1160.6,193.9 1158.9,195.4 1157.8,199.1 1155.8,202.3 1156.1,204.5 1153.2,207.3 
	1151.7,209.3 1148.1,212.4 1145.5,213.9 1137.9,216.9 1133,216.6 1129.1,219.6 1125.1,219.9 1118.8,220.8 1118.7,224.8 1114.3,221 
	1108,219.9 1105.3,221.1 1105.3,222.8 1101.4,224.1 1099.1,229.1 1099.9,232.4 1102.8,234.8 1112.1,241.6 1116.7,247.1 
	1117.6,249.4 1118.4,253 1119.2,255.7 1119,257.9 1119.1,259.5 1115.4,262.6 1110.3,264.5 1108.2,266 1107.4,267.7 1104.1,269.2 
	1101,271.6 1100,266.9 1097.7,264.4 1095.8,265.3 1094.2,263.1 1092,262.5 1091.9,260.9 1085.8,255.3 1080.4,255.1 1080,252.9 
	1076.3,252 1076.3,255.8 1075.8,260 1073.9,263.8 1074.2,269.1 1080.3,274 1081,276.9 1084.4,278.2 1086.9,280.9 1089.7,281.3 
	1094.5,286.4 1094.9,289.6 1095.2,292.7 1097.6,297 1098.9,298.9 1096.6,300.1 1094,298.6 1086.8,295.6 1084.9,292.4 1082.5,289.2 
	1080.1,282.2 1074.1,275 1071.6,273.6 1070.2,268.4 1070.9,266.5 1070.5,263.4 1071.2,260.4 1069.2,253.5 1064.2,245.8 "/>
<polygon class="st0" points="286.1,234.7 283.2,234.6 273.6,233 280.7,232.4 281,230.1 278.6,227.7 284.4,228.1 288.3,227.5 
	291.1,229.2 293.3,229.4 299.5,231.5 299.4,232.6 298.2,233.1 295.2,232.4 292.5,233.6 287.3,233.6 "/>
<polygon class="st0" points="306.1,233.2 309.4,232.8 311.6,233.6 310.2,234.4 306.4,234.6 "/>
<path class="st0" d="M263.8,22.9l6.4-3.4l7.2-1.3l10.2,3.7l3.9-3.5h4.2V21l5.5-0.8L297,23l-22.8,0.6l-4.1-0.9
	C269.8,22.7,264.4,22.9,263.8,22.9z"/>
<polygon class="st0" points="264.4,18.7 258.8,20 251.3,19.2 257.2,17 268.6,16.6 274.3,16.3 272.5,17.7 "/>
<polygon class="st0" points="299.9,15 297,16.2 291.6,14.7 296.2,13.8 300.4,13.5 "/>
<polygon class="st0" points="312.4,20.3 309.3,20 307.3,18.4 312.4,18.5 "/>
<polygon class="st0" points="328.5,22.8 331.8,21.6 335.4,22 335.6,24 331.5,24.1 "/>
<polygon class="st0" points="326.6,20.1 320.5,22.1 315.4,21.4 318.7,18.3 323.2,18.2 329,18.4 "/>
<polygon class="st0" points="331.5,14.4 325.5,13.1 322.3,11.1 326.5,10.5 326.5,11.4 333.7,12.9 "/>
<polygon class="st0" points="345.6,14.8 341.5,14.7 338.7,12.9 341.5,12.6 346.5,14.2 "/>
<polygon class="st0" points="342.4,17.7 340.7,18.5 333.7,17.8 339.1,17 "/>
<polygon class="st0" points="341.3,22.5 344.8,20.7 347.3,18.5 351.1,18.3 352.9,20.1 367.3,20.7 370.6,20 377.6,20.3 375.6,22.7 
	372,24.3 367,24.7 360,24.7 352.8,23 "/>
<polygon class="st0" points="368.1,12.1 356.8,13.1 353.7,10.1 368.4,6 373.4,7 375.9,8.6 380.3,10.5 "/>
<polygon class="st0" points="381.5,27.8 377.9,28.7 372.2,29.2 371.2,26.4 "/>
<polygon class="st0" points="588,91.1 590.9,90.3 596.3,90.7 598.7,92.8 598.4,94.3 596.1,95 595.3,98.3 594.1,101.3 588.8,101.8 
	581.2,104.5 578.6,101.3 582.1,100.3 583.3,98.6 581.2,96.1 581.6,94 586.9,93.7 "/>
<polygon class="st0" points="1180.1,259.6 1180.9,260.1 1183.3,261.4 1183.1,262.4 1181.8,262.9 1180.1,263.3 "/>
<path class="st0" d="M1225.7,140.8l-8-2.5l-3.9,0.2l2.6,2.5v0.8l-3.2,1l-0.1-2.1l-2.9-1.7l0.5-3.5l2.9,0.3l-0.2-2.8l-2.2-1.9
	l-1.1-2.2l-1.1-0.9c1.8,0.1,14.6,4.7,15.3,4.9l2.9-0.8l1.6,2.1l2.8,1.5l-0.3,0.9l-4.2,0.4l-1.3,1.3V140.8z"/>
</svg>
